<?xml version="1.0" encoding="UTF-8" standalone="no"?>
<!-- Created with Inkscape (http://www.inkscape.org/) -->
<svg
   xmlns:svg="http://www.w3.org/2000/svg"
   xmlns="http://www.w3.org/2000/svg"
   version="1.0"
   width="248.03125"
   height="97.441254"
   id="svg2"
   xml:space="preserve"><defs
     id="defs5"><clipPath
       id="clipPath17"><path
         d="M 0,0 L 595.276,0 L 595.276,790.866 L 0,790.866 L 0,0 z"
         id="path19" /></clipPath><linearGradient
       x1="0"
       y1="0"
       x2="1"
       y2="0"
       id="linearGradient29"
       gradientUnits="userSpaceOnUse"
       gradientTransform="matrix(-110,0,0,110,0.9990082,555.55219)"
       spreadMethod="pad"><stop
         id="stop31"
         style="stop-color:#ffffff;stop-opacity:1"
         offset="0" /><stop
         id="stop33"
         style="stop-color:#ffffff;stop-opacity:0"
         offset="1" /></linearGradient><mask
       id="mask35"><g
         id="g37"><g
           id="g39"><g
             id="g41"><g
               id="g43"><path
                 d="M -32768,32767 L 32654.2,32767 L 32654.2,-32510.6 L -32768,-32510.6 L -32768,32767 z"
                 id="path45"
                 style="fill:url(#linearGradient29);stroke:none" /></g></g></g></g></mask><clipPath
       id="clipPath51"><path
         d="M -252.001,749.346 L 596.276,749.346 L 596.276,257.575 L -252.001,257.575 L -252.001,749.346 z"
         id="path53" /></clipPath><clipPath
       id="clipPath55"><path
         d="M -1.141,258.575 L 595.276,258.575 L 595.276,748.346 L -1.141,748.346 L -1.141,258.575 z"
         id="path57" /></clipPath><clipPath
       id="clipPath81"><path
         d="M 0,0 L 595.276,0 L 595.276,790.866 L 0,790.866 L 0,0 z"
         id="path83" /></clipPath><clipPath
       id="clipPath95"><path
         d="M 58.3693,166.591 L 593.441,166.591 L 593.441,79.1008 L 58.3693,79.1008 L 58.3693,166.591 z"
         id="path97" /></clipPath><linearGradient
       x1="0"
       y1="0"
       x2="1"
       y2="0"
       id="linearGradient103"
       gradientUnits="userSpaceOnUse"
       gradientTransform="matrix(0,-33.556519,33.556519,0,199.80212,167.06398)"
       spreadMethod="pad"><stop
         id="stop105"
         style="stop-color:#ffffff;stop-opacity:1"
         offset="0" /><stop
         id="stop107"
         style="stop-color:#ffffff;stop-opacity:0"
         offset="1" /></linearGradient><mask
       id="mask109"><g
         id="g111"><g
           id="g113"><g
             id="g115"><g
               id="g117"><path
                 d="M -32587.1,32767 L 32767,32767 L 32767,-32648.4 L -32587.1,-32648.4 L -32587.1,32767 z"
                 id="path119"
                 style="fill:url(#linearGradient103);stroke:none" /></g></g></g></g></mask><clipPath
       id="clipPath121"><path
         d="M 58.3693,166.591 L 593.441,166.591 L 593.441,79.1008 L 58.3693,79.1008 L 58.3693,166.591 z"
         id="path123" /></clipPath><clipPath
       id="clipPath163"><path
         d="M 49.606,712.913 L 248.032,712.913 L 248.032,790.866 L 49.606,790.866 L 49.606,712.913 z"
         id="path165" /></clipPath></defs><g
     transform="matrix(1.25,0,0,-1.25,-62.0075,988.5825)"
     id="g11"><path
       d="M 49.606,712.913 L 248.031,712.913 L 248.031,790.866 L 49.606,790.866 L 49.606,712.913 z"
       id="path155"
       style="fill:#042d4c;fill-opacity:1;fill-rule:nonzero;stroke:none" /><path
       d="M 248.031,790.866 L 49.606,790.866 L 49.606,712.913 L 248.031,712.913 L 248.031,790.866 z"
       id="path157"
       style="fill:#042d4c;fill-opacity:1;fill-rule:nonzero;stroke:none" /><path
       d="M 83.2895,744.2084 L 83.2895,739.7814 C 83.2895,736.6904 82.0315,734.8834 79.0465,734.8834 L 76.8725,734.8834 L 76.2445,728.9354 L 79.3605,728.9354 C 84.9145,728.9354 89.2895,732.9704 89.2895,739.3364 L 89.2895,744.2084 L 83.2895,744.2084 z M 230.9495,744.1814 L 228.4615,744.1814 C 228.4085,744.1814 228.3825,744.1304 228.3575,744.1034 L 226.2745,737.8954 C 226.2745,737.8954 226.2485,737.8154 226.2485,737.7904 C 226.2485,737.7634 226.2745,737.7374 226.3255,737.7374 L 227.8585,737.7374 C 227.9115,737.7374 227.9375,737.7904 227.9635,737.8424 L 228.4355,739.6244 L 230.9755,739.6244 L 231.4465,737.8424 C 231.4715,737.7904 231.4995,737.7374 231.5535,737.7374 L 232.9945,737.7374 C 233.0445,737.7374 233.0725,737.7634 233.0725,737.7904 C 233.0725,737.8154 233.0445,737.8954 233.0445,737.8954 L 231.0545,744.1034 C 231.0285,744.1304 230.9755,744.1814 230.9495,744.1814 M 238.4685,740.2264 L 238.4685,738.6814 C 238.4685,738.6814 238.0225,738.6544 237.6295,738.6544 C 236.3995,738.6544 235.7435,738.9954 235.7435,740.9094 C 235.7435,742.8984 236.4515,743.2124 237.8135,743.2124 C 238.3895,743.2124 238.9915,743.1084 239.3855,743.0294 C 239.4105,743.0034 239.4645,743.0034 239.5155,743.0034 C 239.5155,743.0034 239.6455,742.9784 239.7255,742.9784 C 239.8035,742.9784 239.8295,743.0294 239.8575,743.1614 L 239.9345,743.5794 C 239.9605,743.6584 239.9605,743.7624 239.9605,743.7894 C 239.9605,743.8674 239.8825,743.8944 239.8295,743.9464 C 239.6205,744.0254 238.7025,744.3134 237.4195,744.3134 C 235.1145,744.3134 234.1455,743.4224 234.1455,740.9584 C 234.1455,738.5504 234.9315,737.6334 237.5775,737.6334 C 238.2315,737.6334 239.0175,737.7374 239.4105,737.8154 L 239.3855,737.8154 C 239.8575,737.9474 239.9605,738.1304 239.9605,738.5764 L 239.9605,741.2494 C 239.9605,741.3264 239.9345,741.3524 239.8575,741.3524 L 237.4195,741.3524 C 237.3415,741.3524 237.3155,741.3264 237.3155,741.2494 L 237.3155,740.4624 C 237.3155,740.3584 237.3945,740.3314 237.4195,740.3314 L 238.4685,740.2264 z M 229.4565,743.1874 L 229.9545,743.1874 L 230.6885,740.6464 L 228.7235,740.6464 L 229.4565,743.1874 z M 116.4005,736.6374 C 116.4005,739.9904 116.5315,741.3524 118.8365,741.3524 C 121.1415,741.3524 121.2725,739.9904 121.2725,736.6374 C 121.2725,733.3104 121.1415,731.9744 118.8365,731.9744 C 116.5315,731.9744 116.4005,733.3104 116.4005,736.6374 M 111.3445,736.6374 C 111.3445,732.1854 112.2355,728.7524 118.8365,728.7524 C 125.4375,728.7524 126.3285,732.1854 126.3285,736.6374 C 126.3285,741.1174 125.4375,744.5754 118.8365,744.5754 C 112.2355,744.5754 111.3445,741.1174 111.3445,736.6374 M 206.5375,741.5894 L 206.5375,743.9214 C 206.5375,744.3654 206.3255,744.5224 205.9345,744.5224 L 205.4365,744.5224 C 203.6295,744.5224 201.6905,744.3134 200.3025,743.9994 C 198.6265,743.6314 197.7355,743.3174 197.7355,742.3224 L 197.7355,729.4854 C 197.7355,729.2774 197.8935,729.1194 198.1025,729.1194 L 202.3185,729.1194 C 202.5285,729.1194 202.6865,729.2774 202.6865,729.4854 L 202.6865,740.7504 C 202.9485,740.8024 204.3365,740.9854 206.0135,740.9854 C 206.5375,740.9854 206.5375,741.2744 206.5375,741.5894 M 172.7715,733.7814 C 172.7715,732.2374 171.8285,731.7664 170.6235,731.7664 C 169.6815,731.7664 168.5545,732.0534 168.5545,732.0534 L 168.5545,743.8414 C 168.5545,744.0514 168.3965,744.2084 168.1865,744.2084 L 163.9695,744.2084 C 163.7615,744.2084 163.6035,744.0514 163.6035,743.8414 L 163.6035,733.7814 C 163.6035,732.2374 162.9745,731.7664 161.8235,731.7664 C 160.8005,731.7664 159.3595,732.0284 159.3595,732.0284 L 159.3595,743.8414 C 159.3595,744.0514 159.2025,744.2084 158.9935,744.2084 L 146.9435,744.2084 L 146.9435,748.8714 C 146.9435,749.2114 146.7605,749.3694 146.4715,749.3694 C 146.4205,749.3694 146.2885,749.3424 146.1575,749.3154 L 142.5415,748.6884 C 142.2015,748.6094 142.0195,748.3734 142.0195,747.9544 L 142.0195,744.2084 L 135.2605,744.2084 L 135.2605,745.8584 C 135.2605,746.4094 135.3395,746.7754 135.6275,747.0374 C 135.9415,747.2994 136.3345,747.3774 137.0155,747.3774 C 137.4605,747.3774 138.1155,747.2994 138.4565,747.2464 C 138.5085,747.2464 138.5605,747.2214 138.6405,747.2214 C 138.7705,747.1954 138.9285,747.1674 139.0055,747.1674 C 139.1905,747.1674 139.2415,747.2994 139.2685,747.5354 L 139.5835,749.6304 C 139.5835,749.6304 139.6095,749.7884 139.6095,749.8664 C 139.6095,750.0754 139.5295,750.2064 139.3205,750.2864 C 138.9545,750.3904 137.5915,750.7834 135.3655,750.7834 C 131.8815,750.7834 130.2835,749.2114 130.2835,746.0944 L 130.2835,744.2084 L 128.0565,744.2084 C 127.8475,744.2084 127.6905,744.0514 127.6905,743.8414 L 127.6905,741.1434 C 127.6905,740.9334 127.8475,740.7754 128.0565,740.7754 L 130.2835,740.7754 L 130.2835,729.4854 C 130.2835,729.2774 130.4405,729.1194 130.6495,729.1194 L 134.8935,729.1194 C 135.1035,729.1194 135.2605,729.2774 135.2605,729.4854 L 135.2605,740.7754 L 142.0195,740.7754 L 142.0195,733.7574 C 142.0195,730.1674 143.8255,728.8844 147.3895,728.8844 C 149.4055,728.8844 150.7425,729.3034 151.0565,729.4074 C 151.3445,729.5124 151.4485,729.6444 151.4485,729.8794 C 151.4485,729.9834 151.4225,730.1154 151.4225,730.1154 L 151.0295,732.1854 C 150.9775,732.4214 150.8725,732.4994 150.7155,732.4994 C 150.6895,732.4994 150.6105,732.4994 150.5065,732.4724 C 150.4795,732.4724 150.4275,732.4464 150.3755,732.4464 C 150.0335,732.3944 149.4315,732.3154 148.7245,732.3154 C 147.2055,732.3154 146.9435,733.0224 146.9435,734.0704 L 146.9435,740.7504 L 154.4085,740.7504 L 154.4085,730.9274 C 154.4085,729.9584 155.2995,729.6444 156.9235,729.2774 C 158.1815,729.0144 160.0145,728.7264 161.4025,728.7264 C 163.1325,728.7264 164.9135,729.0414 166.2235,730.0364 C 168.0025,729.0144 169.9685,728.7264 171.8285,728.7264 C 175.3385,728.7264 177.7225,729.5654 177.7225,733.0754 L 177.7225,743.8414 C 177.7225,744.0514 177.5655,744.2084 177.3545,744.2084 L 173.1385,744.2084 C 172.9285,744.2084 172.7715,744.0514 172.7715,743.8414 L 172.7715,733.7814 z M 212.5105,737.5014 L 212.5105,737.7634 C 212.5105,738.1834 212.5355,739.1514 212.6385,739.7544 C 212.8495,740.7504 213.3985,741.4054 214.9185,741.4054 C 216.3325,741.4054 216.9895,740.8554 217.2505,739.9384 C 217.4075,739.3874 217.4075,738.4974 217.4075,737.9214 L 217.4075,737.5014 L 212.5105,737.5014 z M 189.2215,731.9744 C 189.0645,731.9224 188.2265,731.7134 187.1535,731.7134 C 186.1575,731.7134 184.6905,731.9224 184.6905,733.7574 C 184.6905,735.4074 185.5285,735.6154 186.6285,735.7994 L 189.2215,736.2194 L 189.2215,731.9744 z M 79.0995,738.6014 L 79.0995,743.6314 C 79.0995,746.7754 80.4085,748.2674 83.3425,748.2674 L 85.4645,748.2674 L 86.0925,754.2154 L 82.7655,754.2154 C 76.9505,754.2154 73.0995,749.9194 73.0995,744.0774 L 73.0995,738.6014 L 79.0995,738.6014 z M 102.1245,734.9874 C 103.4855,734.7254 104.0885,734.5684 104.0885,733.3634 C 104.0885,732.1854 103.0415,731.8964 102.0715,731.8964 C 100.5785,731.8964 98.7985,732.3154 98.1165,732.4994 L 98.1425,732.4994 C 98.1165,732.4994 98.0905,732.5254 98.0635,732.5254 C 97.9585,732.5514 97.8555,732.5774 97.7755,732.5774 C 97.6445,732.5774 97.5145,732.4724 97.4875,732.2104 L 97.1725,730.3504 C 97.1465,730.2204 97.1205,730.0364 97.1205,729.9584 C 97.1205,729.7734 97.1995,729.6964 97.4085,729.5914 C 97.9855,729.3554 100.3425,728.7794 102.7795,728.7794 C 106.3675,728.7794 109.0925,730.0364 109.0925,733.7814 C 109.0925,737.3714 106.9705,738.0514 104.9265,738.4184 L 104.5065,738.4974 C 103.3285,738.7074 102.3075,738.9164 102.3075,740.1224 C 102.3075,741.3264 103.5385,741.4824 104.4035,741.4824 C 105.5295,741.4824 106.7345,741.2744 107.3365,741.1434 C 107.6775,741.0644 107.7555,741.0644 107.8605,741.0644 C 107.9915,741.0644 108.1755,741.1954 108.2275,741.3264 C 108.3325,741.9564 108.4885,742.6104 108.5945,743.2394 C 108.5945,743.2394 108.6205,743.3704 108.6205,743.4494 C 108.6205,743.7624 108.4885,743.8944 108.0705,743.9994 C 107.2585,744.2084 105.6345,744.5754 103.6175,744.5754 C 101.1025,744.5754 97.3045,744.1564 97.3045,739.7814 C 97.3045,735.9574 99.8715,735.4074 101.8355,735.0394 L 102.1245,734.9874 z M 194.1465,740.0424 C 194.1465,741.6674 193.6485,742.9244 192.2605,743.7114 C 191.2375,744.2874 189.7985,744.5754 187.7805,744.5754 C 184.6375,744.5754 181.8345,743.7374 181.2845,743.5014 C 181.1015,743.4224 180.9185,743.3174 180.9185,743.1084 L 180.9185,743.0034 C 180.9185,742.9784 180.9435,742.9524 180.9435,742.9244 L 181.4425,740.7504 C 181.4675,740.5934 181.5725,740.5404 181.7045,740.5404 C 181.7565,740.5404 181.8345,740.5404 181.9135,740.5664 C 182.5415,740.7504 184.8475,741.3524 186.6545,741.3524 C 187.5455,741.3524 188.2265,741.2744 188.5925,741.0924 C 189.1435,740.8294 189.2215,740.3584 189.2215,739.5984 L 189.2215,738.9434 L 184.2705,738.1574 C 182.3855,737.8694 179.9485,737.2924 179.9485,733.7034 C 179.9485,729.2504 183.5105,728.7524 187.0745,728.7524 C 188.7765,728.7524 190.1385,728.8574 191.2915,729.1194 C 193.1775,729.5654 194.1465,729.9324 194.1465,732.1324 L 194.1465,740.0424 z M 207.4525,736.5594 C 207.4525,730.6924 210.0985,728.7524 215.7305,728.7524 C 218.2455,728.7524 220.1845,729.3824 221.1015,729.6964 C 221.3885,729.7994 221.4935,730.0094 221.4935,730.1944 C 221.4935,730.2454 221.4935,730.2984 221.4685,730.4034 L 221.0485,732.1324 L 221.0485,732.1064 C 220.9445,732.4724 220.7855,732.5514 220.5775,732.5514 C 220.4715,732.5514 220.3405,732.5254 220.2365,732.4994 L 220.2625,732.4994 C 219.5275,732.2894 218.1665,731.8964 216.6215,731.8964 C 215.3375,731.8964 214.4475,732.0024 213.7925,732.3414 C 213.0325,732.7344 212.5615,733.5204 212.5615,734.6994 L 221.4685,734.6994 C 222.0695,734.6994 222.1755,735.1184 222.1755,735.5114 L 222.1755,736.9004 C 222.1755,739.5194 221.7295,741.5354 220.6555,742.7934 C 219.5275,743.8944 217.6425,744.5754 214.9185,744.5754 C 209.3655,744.5754 207.4525,742.4014 207.4525,736.5594"
       id="path169"
       style="fill:#ffffff;fill-opacity:1;fill-rule:nonzero;stroke:none" /></g></svg>